<?xml version="1.0" standalone="no"?><!DOCTYPE svg PUBLIC "-//W3C//DTD SVG 1.1//EN"
        "http://www.w3.org/Graphics/SVG/1.1/DTD/svg11.dtd">
<svg class="icon" style="" viewBox="0 0 1024 1024" version="1.1" xmlns="http://www.w3.org/2000/svg"
     xmlns:xlink="http://www.w3.org/1999/xlink" width="200" height="200">
    <defs>
        <linearGradient id="orange_red">
            <stop offset="0%" stop-color="#00E7FF"/>
            <stop offset="100%" stop-color="#00FF9C"/>
        </linearGradient>
    </defs>
    <defs>
        <style type="text/css"></style>
    </defs>
    <path d="M851.2 166.4c-12.8-6.4-25.6-6.4-32 0l-640 320C166.4 486.4 160 499.2 160 512s6.4 25.6 12.8 25.6l153.6 96c12.8 6.4 25.6 6.4 38.4-6.4L704 320l12.8 6.4-307.2 326.4c-6.4 6.4-6.4 12.8-6.4 19.2l0 140.8c0 12.8 6.4 25.6 19.2 32 12.8 6.4 25.6 0 32-6.4l76.8-76.8 153.6 102.4c6.4 6.4 12.8 6.4 19.2 6.4 6.4 0 6.4 0 12.8 0 12.8-6.4 19.2-12.8 19.2-25.6l128-640C864 185.6 864 172.8 851.2 166.4z"
          style="fill:url(#orange_red)"></path>
</svg>